<svg width="26" height="26" viewBox="0 0 26 26" fill="none" xmlns="http://www.w3.org/2000/svg">
<rect width="26" height="26" rx="2" fill="#0272B1"/>
<path d="M8.07227 7.3749C8.07203 7.83903 7.88744 8.28405 7.55908 8.61208C7.23073 8.9401 6.78552 9.12426 6.32139 9.12402C5.85726 9.12379 5.41223 8.93919 5.08421 8.61084C4.75619 8.28249 4.57203 7.83728 4.57227 7.37315C4.5725 6.90902 4.75709 6.46399 5.08545 6.13597C5.4138 5.80794 5.85901 5.62379 6.32314 5.62402C6.78727 5.62426 7.2323 5.80885 7.56032 6.13721C7.88835 6.46556 8.0725 6.91077 8.07227 7.3749ZM8.12477 10.4199H4.62477V21.3749H8.12477V10.4199ZM13.6548 10.4199H10.1723V21.3749H13.6198V15.6261C13.6198 12.4236 17.7935 12.1261 17.7935 15.6261V21.3749H21.2498V14.4361C21.2498 9.0374 15.0723 9.23865 13.6198 11.8899L13.6548 10.4199Z" fill="#FBFFFE"/>
</svg>
