<svg width="26" height="26" viewBox="0 0 26 26" fill="none" xmlns="http://www.w3.org/2000/svg">
<rect width="26" height="26" rx="2" fill="#1D9BF0"/>
<path d="M20.1573 9.32808C20.1682 9.48685 20.1682 9.64547 20.1682 9.80564C20.1682 14.6853 16.4533 20.3131 9.66072 20.3131V20.3103C7.65401 20.3131 5.6889 19.7384 4 18.6546C4.2918 18.6898 4.585 18.7073 4.87891 18.708C6.54209 18.7094 8.15744 18.1516 9.46539 17.1242C8.69476 17.1096 7.94794 16.8546 7.32936 16.3948C6.71077 15.935 6.25134 15.2933 6.0153 14.5596C6.56894 14.6665 7.13931 14.6444 7.68269 14.4959C5.95975 14.1479 4.72028 12.6342 4.72028 10.8762V10.8294C5.23389 11.1155 5.80873 11.274 6.39639 11.2916C4.77344 10.2071 4.27352 8.04839 5.25339 6.36075C6.18052 7.5016 7.33726 8.43465 8.64848 9.09933C9.95969 9.764 11.3961 10.1454 12.8643 10.2188C12.7179 9.58863 12.7396 8.93107 12.9271 8.3119C13.1146 7.69272 13.4614 7.13363 13.9328 6.69052C15.4202 5.29228 17.7595 5.364 19.1575 6.85069C19.9846 6.68739 20.7777 6.38416 21.5027 5.95407C21.227 6.80916 20.6502 7.53502 19.8794 7.99664C20.6114 7.91033 21.3263 7.71431 22 7.41516C21.5044 8.15732 20.8804 8.80512 20.1573 9.32808Z" fill="#FBFFFE"/>
</svg>
