<svg width="82" height="82" viewBox="0 0 82 82" fill="none" xmlns="http://www.w3.org/2000/svg">
<path d="M43.0492 8.19995C42.5055 8.19995 41.9841 8.41593 41.5996 8.80038C41.2152 9.18483 40.9992 9.70626 40.9992 10.25V20.91C40.9992 26.5557 44.7999 31.3076 49.9782 32.759C49.0762 43.993 45.829 52.3775 43.1681 57.5476C43.9225 58.4332 44.6318 59.0933 45.1853 59.5566C47.3132 61.336 49.1992 64.2347 49.1992 67.8509C49.202 69.9916 48.5179 72.0768 47.2476 73.8H69.6992C71.3303 73.8 72.8946 73.152 74.0479 71.9987C75.2013 70.8453 75.8492 69.281 75.8492 67.65V66.3913C75.8492 64.9645 75.3613 63.6484 74.611 62.5701C72.397 59.3844 66.1281 49.0811 64.8161 32.7549C67.4004 32.0304 69.677 30.4809 71.2988 28.3424C72.9206 26.204 73.7987 23.5939 73.7992 20.91V10.25C73.7992 9.70626 73.5832 9.18483 73.1988 8.80038C72.8143 8.41593 72.2929 8.19995 71.7492 8.19995H68.6742C67.8587 8.19995 67.0765 8.52392 66.4999 9.1006C65.9232 9.67727 65.5992 10.4594 65.5992 11.275V14.35C65.5998 14.6192 65.5473 14.8858 65.4447 15.1348C65.3422 15.3837 65.1917 15.61 65.0017 15.8007C64.618 16.1859 64.097 16.403 63.5533 16.4041C63.0096 16.4051 62.4878 16.1902 62.1025 15.8065C61.7173 15.4228 61.5003 14.9018 61.4992 14.3582V14.35L61.4828 11.2586C61.4785 10.4459 61.1526 9.66792 60.5764 9.09479C60.0002 8.52166 59.2205 8.19994 58.4078 8.19995H56.3906C55.5779 8.19994 54.7982 8.52166 54.222 9.09479C53.6458 9.66792 53.32 10.4459 53.3156 11.2586L53.2992 14.3582C53.2981 14.9018 53.0811 15.4228 52.6959 15.8065C52.3107 16.1902 51.7888 16.4051 51.2451 16.4041C50.7014 16.403 50.1804 16.1859 49.7967 15.8007C49.4131 15.4155 49.1981 14.8936 49.1992 14.35V11.275C49.1992 10.4594 48.8752 9.67727 48.2986 9.1006C47.7219 8.52392 46.9398 8.19995 46.1242 8.19995H43.0492ZM26.6492 20.5C24.2748 20.5 21.9512 21.1873 19.9588 22.4789C17.9664 23.7705 16.3904 25.6111 15.4211 27.7786C14.4518 29.9462 14.1306 32.3479 14.4962 34.694C14.8618 37.0401 15.8987 39.2302 17.4816 41H16.3992C15.3118 41 14.269 41.4319 13.5001 42.2008C12.7312 42.9697 12.2992 44.0126 12.2992 45.1C12.2992 46.1873 12.7312 47.2302 13.5001 47.9991C14.269 48.768 15.3118 49.2 16.3992 49.2H18.5312C17.006 56.5718 12.9839 60.8276 10.7412 62.7013C9.32262 63.8903 8.19922 65.7189 8.19922 67.8509C8.19922 71.135 10.8642 73.8 14.1483 73.8H39.1542C42.4342 73.8 45.0992 71.135 45.0992 67.8509C45.0992 65.7189 43.9758 63.8903 42.5572 62.7013C40.3145 60.8276 36.2924 56.5718 34.7672 49.2H36.8992C37.9866 49.2 39.0295 48.768 39.7984 47.9991C40.5673 47.2302 40.9992 46.1873 40.9992 45.1C40.9992 44.0126 40.5673 42.9697 39.7984 42.2008C39.0295 41.4319 37.9866 41 36.8992 41H35.8168C37.3998 39.2302 38.4366 37.0401 38.8022 34.694C39.1679 32.3479 38.8466 29.9462 37.8773 27.7786C36.908 25.6111 35.332 23.7705 33.3396 22.4789C31.3473 21.1873 29.0236 20.5 26.6492 20.5Z" fill="#FBFFFE"/>
</svg>
