<svg width="86" height="86" viewBox="0 0 86 86" fill="none" xmlns="http://www.w3.org/2000/svg">
<rect x="27.5195" y="27.52" width="34.4" height="33.2533" fill="white"/>
<path d="M78.7202 23.3544C78.4037 22.1159 77.7972 20.9705 76.9509 20.0126C76.1045 19.0547 75.0425 18.3117 73.8525 17.845C62.3366 13.3972 44.0078 13.4375 43 13.4375C41.9922 13.4375 23.6634 13.3972 12.1475 17.845C10.9575 18.3117 9.89549 19.0547 9.04913 20.0126C8.20277 20.9705 7.5963 22.1159 7.27977 23.3544C6.40969 26.707 5.375 32.8345 5.375 43C5.375 53.1655 6.40969 59.293 7.27977 62.6456C7.59583 63.8847 8.20208 65.0308 9.04847 65.9893C9.89486 66.9479 10.9571 67.6913 12.1475 68.1584C23.1797 72.4147 40.4469 72.5625 42.7783 72.5625H43.2217C45.5531 72.5625 62.8304 72.4147 73.8525 68.1584C75.0429 67.6913 76.1051 66.9479 76.9515 65.9893C77.7979 65.0308 78.4042 63.8847 78.7202 62.6456C79.5903 59.2863 80.625 53.1655 80.625 43C80.625 32.8345 79.5903 26.707 78.7202 23.3544ZM54.4958 44.1187L38.3708 54.8687C38.1684 55.0037 37.9331 55.0813 37.69 55.0931C37.447 55.1048 37.2053 55.0504 36.9908 54.9355C36.7762 54.8207 36.5969 54.6497 36.472 54.441C36.347 54.2322 36.2811 53.9933 36.2812 53.75V32.25C36.2811 32.0067 36.347 31.7679 36.472 31.5591C36.5969 31.3503 36.7762 31.1793 36.9908 31.0645C37.2053 30.9496 37.447 30.8952 37.69 30.907C37.9331 30.9187 38.1684 30.9963 38.3708 31.1313L54.4958 41.8813C54.6801 42.004 54.8313 42.1703 54.9358 42.3655C55.0404 42.5606 55.0951 42.7786 55.0951 43C55.0951 43.2214 55.0404 43.4394 54.9358 43.6346C54.8313 43.8297 54.6801 43.996 54.4958 44.1187Z" fill="#CD0000"/>
</svg>
