<svg width="25" height="438" viewBox="0 0 25 438" fill="none" xmlns="http://www.w3.org/2000/svg">
<circle cx="12.5" cy="218.5" r="12.5" fill="#928A8A"/>
<path d="M4.75391 8C4.75391 12.4183 8.33563 16 12.7539 16C17.1722 16 20.7539 12.4183 20.7539 8C20.7539 3.58172 17.1722 0 12.7539 0C8.33563 0 4.75391 3.58172 4.75391 8ZM4.75391 429.5C4.75391 433.918 8.33563 437.5 12.7539 437.5C17.1722 437.5 20.7539 433.918 20.7539 429.5C20.7539 425.082 17.1722 421.5 12.7539 421.5C8.33563 421.5 4.75391 425.082 4.75391 429.5ZM11.2539 11.0107C11.2539 11.8391 11.9255 12.5107 12.7539 12.5107C13.5823 12.5107 14.2539 11.8391 14.2539 11.0107H11.2539ZM14.2539 17.0321C14.2539 16.2037 13.5823 15.5321 12.7539 15.5321C11.9255 15.5321 11.2539 16.2037 11.2539 17.0321H14.2539ZM11.2539 23.0536C11.2539 23.882 11.9255 24.5536 12.7539 24.5536C13.5823 24.5536 14.2539 23.882 14.2539 23.0536H11.2539ZM14.2539 29.075C14.2539 28.2466 13.5823 27.575 12.7539 27.575C11.9255 27.575 11.2539 28.2466 11.2539 29.075H14.2539ZM11.2539 35.0964C11.2539 35.9249 11.9255 36.5964 12.7539 36.5964C13.5823 36.5964 14.2539 35.9249 14.2539 35.0964H11.2539ZM14.2539 41.1179C14.2539 40.2894 13.5823 39.6179 12.7539 39.6179C11.9255 39.6179 11.2539 40.2894 11.2539 41.1179H14.2539ZM11.2539 47.1393C11.2539 47.9677 11.9255 48.6393 12.7539 48.6393C13.5823 48.6393 14.2539 47.9677 14.2539 47.1393H11.2539ZM14.2539 53.1607C14.2539 52.3323 13.5823 51.6607 12.7539 51.6607C11.9255 51.6607 11.2539 52.3323 11.2539 53.1607H14.2539ZM11.2539 59.1821C11.2539 60.0106 11.9255 60.6821 12.7539 60.6821C13.5823 60.6821 14.2539 60.0106 14.2539 59.1821H11.2539ZM14.2539 65.2036C14.2539 64.3751 13.5823 63.7036 12.7539 63.7036C11.9255 63.7036 11.2539 64.3751 11.2539 65.2036H14.2539ZM11.2539 71.225C11.2539 72.0534 11.9255 72.725 12.7539 72.725C13.5823 72.725 14.2539 72.0534 14.2539 71.225H11.2539ZM14.2539 77.2464C14.2539 76.418 13.5823 75.7464 12.7539 75.7464C11.9255 75.7464 11.2539 76.418 11.2539 77.2464H14.2539ZM11.2539 83.2679C11.2539 84.0963 11.9255 84.7679 12.7539 84.7679C13.5823 84.7679 14.2539 84.0963 14.2539 83.2679H11.2539ZM14.2539 89.2893C14.2539 88.4609 13.5823 87.7893 12.7539 87.7893C11.9255 87.7893 11.2539 88.4609 11.2539 89.2893H14.2539ZM11.2539 95.3107C11.2539 96.1391 11.9255 96.8107 12.7539 96.8107C13.5823 96.8107 14.2539 96.1391 14.2539 95.3107H11.2539ZM14.2539 101.332C14.2539 100.504 13.5823 99.8321 12.7539 99.8321C11.9255 99.8321 11.2539 100.504 11.2539 101.332H14.2539ZM11.2539 107.354C11.2539 108.182 11.9255 108.854 12.7539 108.854C13.5823 108.854 14.2539 108.182 14.2539 107.354H11.2539ZM14.2539 113.375C14.2539 112.547 13.5823 111.875 12.7539 111.875C11.9255 111.875 11.2539 112.547 11.2539 113.375H14.2539ZM11.2539 119.396C11.2539 120.225 11.9255 120.896 12.7539 120.896C13.5823 120.896 14.2539 120.225 14.2539 119.396H11.2539ZM14.2539 125.418C14.2539 124.589 13.5823 123.918 12.7539 123.918C11.9255 123.918 11.2539 124.589 11.2539 125.418H14.2539ZM11.2539 131.439C11.2539 132.268 11.9255 132.939 12.7539 132.939C13.5823 132.939 14.2539 132.268 14.2539 131.439H11.2539ZM14.2539 137.461C14.2539 136.632 13.5823 135.961 12.7539 135.961C11.9255 135.961 11.2539 136.632 11.2539 137.461H14.2539ZM11.2539 143.482C11.2539 144.311 11.9255 144.982 12.7539 144.982C13.5823 144.982 14.2539 144.311 14.2539 143.482H11.2539ZM14.2539 149.504C14.2539 148.675 13.5823 148.004 12.7539 148.004C11.9255 148.004 11.2539 148.675 11.2539 149.504H14.2539ZM11.2539 155.525C11.2539 156.353 11.9255 157.025 12.7539 157.025C13.5823 157.025 14.2539 156.353 14.2539 155.525H11.2539ZM14.2539 161.546C14.2539 160.718 13.5823 160.046 12.7539 160.046C11.9255 160.046 11.2539 160.718 11.2539 161.546H14.2539ZM11.2539 167.568C11.2539 168.396 11.9255 169.068 12.7539 169.068C13.5823 169.068 14.2539 168.396 14.2539 167.568H11.2539ZM14.2539 173.589C14.2539 172.761 13.5823 172.089 12.7539 172.089C11.9255 172.089 11.2539 172.761 11.2539 173.589H14.2539ZM11.2539 179.611C11.2539 180.439 11.9255 181.111 12.7539 181.111C13.5823 181.111 14.2539 180.439 14.2539 179.611H11.2539ZM14.2539 185.632C14.2539 184.804 13.5823 184.132 12.7539 184.132C11.9255 184.132 11.2539 184.804 11.2539 185.632H14.2539ZM11.2539 191.654C11.2539 192.482 11.9255 193.154 12.7539 193.154C13.5823 193.154 14.2539 192.482 14.2539 191.654H11.2539ZM14.2539 197.675C14.2539 196.847 13.5823 196.175 12.7539 196.175C11.9255 196.175 11.2539 196.847 11.2539 197.675H14.2539ZM11.2539 203.696C11.2539 204.525 11.9255 205.196 12.7539 205.196C13.5823 205.196 14.2539 204.525 14.2539 203.696H11.2539ZM14.2539 209.718C14.2539 208.889 13.5823 208.218 12.7539 208.218C11.9255 208.218 11.2539 208.889 11.2539 209.718H14.2539ZM11.2539 215.739C11.2539 216.568 11.9255 217.239 12.7539 217.239C13.5823 217.239 14.2539 216.568 14.2539 215.739H11.2539ZM14.2539 221.761C14.2539 220.932 13.5823 220.261 12.7539 220.261C11.9255 220.261 11.2539 220.932 11.2539 221.761H14.2539ZM11.2539 227.782C11.2539 228.611 11.9255 229.282 12.7539 229.282C13.5823 229.282 14.2539 228.611 14.2539 227.782H11.2539ZM14.2539 233.803C14.2539 232.975 13.5823 232.303 12.7539 232.303C11.9255 232.303 11.2539 232.975 11.2539 233.803H14.2539ZM11.2539 239.825C11.2539 240.653 11.9255 241.325 12.7539 241.325C13.5823 241.325 14.2539 240.653 14.2539 239.825H11.2539ZM14.2539 245.846C14.2539 245.018 13.5823 244.346 12.7539 244.346C11.9255 244.346 11.2539 245.018 11.2539 245.846H14.2539ZM11.2539 251.868C11.2539 252.696 11.9255 253.368 12.7539 253.368C13.5823 253.368 14.2539 252.696 14.2539 251.868H11.2539ZM14.2539 257.889C14.2539 257.061 13.5823 256.389 12.7539 256.389C11.9255 256.389 11.2539 257.061 11.2539 257.889H14.2539ZM11.2539 263.911C11.2539 264.739 11.9255 265.411 12.7539 265.411C13.5823 265.411 14.2539 264.739 14.2539 263.911H11.2539ZM14.2539 269.932C14.2539 269.104 13.5823 268.432 12.7539 268.432C11.9255 268.432 11.2539 269.104 11.2539 269.932H14.2539ZM11.2539 275.953C11.2539 276.782 11.9255 277.453 12.7539 277.453C13.5823 277.453 14.2539 276.782 14.2539 275.953H11.2539ZM14.2539 281.975C14.2539 281.146 13.5823 280.475 12.7539 280.475C11.9255 280.475 11.2539 281.146 11.2539 281.975H14.2539ZM11.2539 287.996C11.2539 288.825 11.9255 289.496 12.7539 289.496C13.5823 289.496 14.2539 288.825 14.2539 287.996H11.2539ZM14.2539 294.018C14.2539 293.189 13.5823 292.518 12.7539 292.518C11.9255 292.518 11.2539 293.189 11.2539 294.018H14.2539ZM11.2539 300.039C11.2539 300.868 11.9255 301.539 12.7539 301.539C13.5823 301.539 14.2539 300.868 14.2539 300.039H11.2539ZM14.2539 306.061C14.2539 305.232 13.5823 304.561 12.7539 304.561C11.9255 304.561 11.2539 305.232 11.2539 306.061H14.2539ZM11.2539 312.082C11.2539 312.91 11.9255 313.582 12.7539 313.582C13.5823 313.582 14.2539 312.91 14.2539 312.082H11.2539ZM14.2539 318.103C14.2539 317.275 13.5823 316.603 12.7539 316.603C11.9255 316.603 11.2539 317.275 11.2539 318.103H14.2539ZM11.2539 324.125C11.2539 324.953 11.9255 325.625 12.7539 325.625C13.5823 325.625 14.2539 324.953 14.2539 324.125H11.2539ZM14.2539 330.146C14.2539 329.318 13.5823 328.646 12.7539 328.646C11.9255 328.646 11.2539 329.318 11.2539 330.146H14.2539ZM11.2539 336.168C11.2539 336.996 11.9255 337.668 12.7539 337.668C13.5823 337.668 14.2539 336.996 14.2539 336.168H11.2539ZM14.2539 342.189C14.2539 341.361 13.5823 340.689 12.7539 340.689C11.9255 340.689 11.2539 341.361 11.2539 342.189H14.2539ZM11.2539 348.211C11.2539 349.039 11.9255 349.711 12.7539 349.711C13.5823 349.711 14.2539 349.039 14.2539 348.211H11.2539ZM14.2539 354.232C14.2539 353.404 13.5823 352.732 12.7539 352.732C11.9255 352.732 11.2539 353.404 11.2539 354.232H14.2539ZM11.2539 360.253C11.2539 361.082 11.9255 361.753 12.7539 361.753C13.5823 361.753 14.2539 361.082 14.2539 360.253H11.2539ZM14.2539 366.275C14.2539 365.446 13.5823 364.775 12.7539 364.775C11.9255 364.775 11.2539 365.446 11.2539 366.275H14.2539ZM11.2539 372.296C11.2539 373.125 11.9255 373.796 12.7539 373.796C13.5823 373.796 14.2539 373.125 14.2539 372.296H11.2539ZM14.2539 378.318C14.2539 377.489 13.5823 376.818 12.7539 376.818C11.9255 376.818 11.2539 377.489 11.2539 378.318H14.2539ZM11.2539 384.339C11.2539 385.168 11.9255 385.839 12.7539 385.839C13.5823 385.839 14.2539 385.168 14.2539 384.339H11.2539ZM14.2539 390.361C14.2539 389.532 13.5823 388.861 12.7539 388.861C11.9255 388.861 11.2539 389.532 11.2539 390.361H14.2539ZM11.2539 396.382C11.2539 397.21 11.9255 397.882 12.7539 397.882C13.5823 397.882 14.2539 397.21 14.2539 396.382H11.2539ZM14.2539 402.403C14.2539 401.575 13.5823 400.903 12.7539 400.903C11.9255 400.903 11.2539 401.575 11.2539 402.403H14.2539ZM11.2539 408.425C11.2539 409.253 11.9255 409.925 12.7539 409.925C13.5823 409.925 14.2539 409.253 14.2539 408.425H11.2539ZM14.2539 414.446C14.2539 413.618 13.5823 412.946 12.7539 412.946C11.9255 412.946 11.2539 413.618 11.2539 414.446H14.2539ZM11.2539 420.468C11.2539 421.296 11.9255 421.968 12.7539 421.968C13.5823 421.968 14.2539 421.296 14.2539 420.468H11.2539ZM14.2539 426.489C14.2539 425.661 13.5823 424.989 12.7539 424.989C11.9255 424.989 11.2539 425.661 11.2539 426.489H14.2539ZM11.2539 8V11.0107H14.2539V8H11.2539ZM11.2539 17.0321V23.0536H14.2539V17.0321H11.2539ZM11.2539 29.075V35.0964H14.2539V29.075H11.2539ZM11.2539 41.1179V47.1393H14.2539V41.1179H11.2539ZM11.2539 53.1607V59.1821H14.2539V53.1607H11.2539ZM11.2539 65.2036V71.225H14.2539V65.2036H11.2539ZM11.2539 77.2464V83.2679H14.2539V77.2464H11.2539ZM11.2539 89.2893V95.3107H14.2539V89.2893H11.2539ZM11.2539 101.332V107.354H14.2539V101.332H11.2539ZM11.2539 113.375V119.396H14.2539V113.375H11.2539ZM11.2539 125.418V131.439H14.2539V125.418H11.2539ZM11.2539 137.461V143.482H14.2539V137.461H11.2539ZM11.2539 149.504V155.525H14.2539V149.504H11.2539ZM11.2539 161.546V167.568H14.2539V161.546H11.2539ZM11.2539 173.589V179.611H14.2539V173.589H11.2539ZM11.2539 185.632V191.654H14.2539V185.632H11.2539ZM11.2539 197.675V203.696H14.2539V197.675H11.2539ZM11.2539 209.718V215.739H14.2539V209.718H11.2539ZM11.2539 221.761V227.782H14.2539V221.761H11.2539ZM11.2539 233.803V239.825H14.2539V233.803H11.2539ZM11.2539 245.846V251.868H14.2539V245.846H11.2539ZM11.2539 257.889V263.911H14.2539V257.889H11.2539ZM11.2539 269.932V275.953H14.2539V269.932H11.2539ZM11.2539 281.975V287.996H14.2539V281.975H11.2539ZM11.2539 294.018V300.039H14.2539V294.018H11.2539ZM11.2539 306.061V312.082H14.2539V306.061H11.2539ZM11.2539 318.103V324.125H14.2539V318.103H11.2539ZM11.2539 330.146V336.168H14.2539V330.146H11.2539ZM11.2539 342.189V348.211H14.2539V342.189H11.2539ZM11.2539 354.232V360.253H14.2539V354.232H11.2539ZM11.2539 366.275V372.296H14.2539V366.275H11.2539ZM11.2539 378.318V384.339H14.2539V378.318H11.2539ZM11.2539 390.361V396.382H14.2539V390.361H11.2539ZM11.2539 402.403V408.425H14.2539V402.403H11.2539ZM11.2539 414.446V420.468H14.2539V414.446H11.2539ZM11.2539 426.489V429.5H14.2539V426.489H11.2539Z" fill="#928A8A" fill-opacity="0.65"/>
</svg>
